<svg xmlns="http://www.w3.org/2000/svg" viewBox="0 0 48 48" fill="none">
    <path fill="#0C4B33" d="M22.292 0H30.14V36.33C26.114 37.094 23.158 37.4 19.948 37.4C10.366 37.4 5.37201 33.068 5.37201 24.76C5.37201 16.758 10.672 11.56 18.878 11.56C20.152 11.56 21.12 11.662 22.292 11.968V0ZM22.292 18.286C21.4389 17.9978 20.5423 17.8598 19.642 17.878C15.666 17.878 13.374 20.324 13.374 24.606C13.374 28.786 15.566 31.078 19.592 31.078C20.458 31.078 21.172 31.028 22.292 30.874V18.286ZM42.628 12.12V30.314C42.628 36.582 42.17 39.59 40.794 42.188C39.52 44.686 37.838 46.266 34.372 47.998L27.084 44.532C30.55 42.902 32.232 41.474 33.302 39.282C34.424 37.04 34.78 34.44 34.78 27.612V12.118L42.628 12.12ZM34.78 0.042H42.628V8.094H34.78V0.042Z"/>
</svg>
