<svg xmlns="http://www.w3.org/2000/svg" viewBox="0 0 48 48" fill="none">
    <path fill="#FFFFFF" stroke="#979593" stroke-width="2" stroke-miterlimit="10" d="M43.9231 41H4.07692C3.48214 41 3 40.5043 3 39.8929V11.1071C3 10.4957 3.48214 10 4.07692 10H43.9231C44.5179 10 45 10.4957 45 11.1071V39.8929C45 40.5043 44.5179 41 43.9231 41Z"/>
    <path fill="#FF383C" d="M6 14C6.55228 14 7 13.5523 7 13C7 12.4477 6.55228 12 6 12C5.44772 12 5 12.4477 5 13C5 13.5523 5.44772 14 6 14Z"/>
    <path fill="#FFCC00" d="M9 14C9.55228 14 10 13.5523 10 13C10 12.4477 9.55228 12 9 12C8.44772 12 8 12.4477 8 13C8 13.5523 8.44772 14 9 14Z"/>
    <path fill="#34C759" d="M12 14C12.5523 14 13 13.5523 13 13C13 12.4477 12.5523 12 12 12C11.4477 12 11 12.4477 11 13C11 13.5523 11.4477 14 12 14Z"/>
    <path fill="#FFFFFF" d="M3 16H45H3Z"/>
    <path stroke="#979593" stroke-width="2" stroke-miterlimit="10" d="M3 16H45"/>
    <path fill="#EDEBE9" d="M14 40H4.5C4.22385 40 4 39.7605 4 39.4651V17H14V40Z"/>
    <path fill="#C8C6C4" d="M11.4 24.5714H6.6C6.26862 24.5714 6 24.3156 6 24C6 23.6844 6.26862 23.4286 6.6 23.4286H11.4C11.7314 23.4286 12 23.6844 12 24C12 24.3156 11.7314 24.5714 11.4 24.5714ZM11.4 21.1429H6.6C6.26862 21.1429 6 20.887 6 20.5714C6 20.2558 6.26862 20 6.6 20H11.4C11.7314 20 12 20.2558 12 20.5714C12 20.887 11.7314 21.1429 11.4 21.1429ZM11.4 28H6.6C6.26862 28 6 27.7442 6 27.4286C6 27.113 6.26862 26.8571 6.6 26.8571H11.4C11.7314 26.8571 12 27.113 12 27.4286C12 27.7442 11.7314 28 11.4 28Z"/>
    <path fill="#C8C6C4" d="M27.4737 24.6154H18.5263C18.2356 24.6154 18 24.3571 18 24.0385C18 23.7198 18.2356 23.4615 18.5263 23.4615H27.4737C27.7644 23.4615 28 23.7198 28 24.0385C28 24.3571 27.7644 24.6154 27.4737 24.6154ZM27.4737 21.1538H18.5263C18.2356 21.1538 18 20.8956 18 20.5769C18 20.2583 18.2356 20 18.5263 20H27.4737C27.7644 20 28 20.2583 28 20.5769C28 20.8956 27.7644 21.1538 27.4737 21.1538ZM27.4737 28.0769H18.5263C18.2356 28.0769 18 27.8186 18 27.5C18 27.1814 18.2356 26.9231 18.5263 26.9231H27.4737C27.7644 26.9231 28 27.1814 28 27.5C28 27.8186 27.7644 28.0769 27.4737 28.0769ZM27.4737 31.5385H18.5263C18.2356 31.5385 18 31.2802 18 30.9615C18 30.6429 18.2356 30.3846 18.5263 30.3846H27.4737C27.7644 30.3846 28 30.6429 28 30.9615C28 31.2802 27.7644 31.5385 27.4737 31.5385ZM27.4737 35H18.5263C18.2356 35 18 34.7417 18 34.4231C18 34.1044 18.2356 33.8462 18.5263 33.8462H27.4737C27.7644 33.8462 28 34.1044 28 34.4231C28 34.7417 27.7644 35 27.4737 35Z"/>
    <path fill="#00995D" d="M40.9524 35H32.0476C31.469 35 31 34.4834 31 33.8462V21.1538C31 20.5166 31.469 20 32.0476 20H40.9524C41.531 20 42 20.5166 42 21.1538V33.8462C42 34.4834 41.531 35 40.9524 35Z"/>
</svg>
